# Create by IngressModelExport
# Develop by YJBeetle
# Now time is 2017-04-10 06:19:08

# ingress obj info:
# af.length = 512
# aword0.length = 90
# aword1.length = 128
# avertexattribute.length = 3
# avertexattribute[0].usage = 1
# avertexattribute[0].numComponents = 3
# avertexattribute[0].alias = a_position
# avertexattribute[1].usage = 8
# avertexattribute[1].numComponents = 3
# avertexattribute[1].alias = a_normal
# avertexattribute[2].usage = 16
# avertexattribute[2].numComponents = 2
# avertexattribute[2].alias = a_texCoord0

# obj info:
# Vertex count: 64
# Surface count: 30
# Line count: 64

# Geometric vertices (v):
v 0.248201 -0.266987 0.292347
v 0.248201 0.252593 0.292347
v -0.250028 0.252593 0.292347
v -0.250028 -0.266987 0.292347
v -0.293985 0.252593 0.248391
v -0.293985 0.252593 -0.249838
v -0.293985 -0.266987 -0.249838
v -0.293985 -0.266987 0.248391
v 0.292157 -0.266987 -0.249838
v 0.292157 0.252593 -0.249838
v 0.292157 0.252593 0.248391
v 0.292157 -0.266987 0.248391
v 0.248201 0.29655 0.248391
v 0.248201 0.29655 -0.249838
v -0.250028 0.29655 -0.249838
v -0.250028 0.29655 0.248391
v 0.248201 0.252593 -0.293795
v 0.248201 -0.266987 -0.293795
v -0.250028 -0.266987 -0.293795
v -0.250028 0.252593 -0.293795
v -0.293985 -0.266987 0.248391
v -0.250028 -0.266987 0.292347
v -0.250028 0.252593 0.292347
v -0.293985 0.252593 0.248391
v 0.248201 -0.266987 0.292347
v 0.292157 -0.266987 0.248391
v 0.292157 0.252593 0.248391
v 0.248201 0.252593 0.292347
v -0.293985 0.252593 0.248391
v -0.250028 0.29655 0.248391
v -0.250028 0.29655 -0.249838
v -0.293985 0.252593 -0.249838
v -0.250028 0.29655 0.248391
v -0.250028 0.252593 0.292347
v 0.248201 0.252593 0.292347
v 0.248201 0.29655 0.248391
v 0.248201 0.29655 0.248391
v 0.292157 0.252593 0.248391
v 0.292157 0.252593 -0.249838
v 0.248201 0.29655 -0.249838
v -0.293985 0.252593 -0.249838
v -0.250028 0.252593 -0.293795
v -0.250028 -0.266987 -0.293795
v -0.293985 -0.266987 -0.249838
v -0.250028 0.252593 -0.293795
v -0.250028 0.29655 -0.249838
v 0.248201 0.29655 -0.249838
v 0.248201 0.252593 -0.293795
v 0.248201 0.252593 -0.293795
v 0.292157 0.252593 -0.249838
v 0.292157 -0.266987 -0.249838
v 0.248201 -0.266987 -0.293795
v -0.250028 0.29655 0.248391
v -0.293985 0.252593 0.248391
v -0.250028 0.252593 0.292347
v 0.292157 0.252593 0.248391
v 0.248201 0.29655 0.248391
v 0.248201 0.252593 0.292347
v -0.250028 0.252593 -0.293795
v -0.293985 0.252593 -0.249838
v -0.250028 0.29655 -0.249838
v 0.292157 0.252593 -0.249838
v 0.248201 0.252593 -0.293795
v 0.248201 0.29655 -0.249838

# Vertex normals (vn):
vn 0.0 0.0 1.0
vn 0.0 0.0 1.0
vn 0.0 0.0 1.0
vn 0.0 0.0 1.0
vn -1.0 0.0 0.0
vn -1.0 0.0 0.0
vn -1.0 0.0 0.0
vn -1.0 0.0 0.0
vn 1.0 0.0 0.0
vn 1.0 0.0 0.0
vn 1.0 0.0 0.0
vn 1.0 0.0 0.0
vn 0.0 1.0 0.0
vn 0.0 1.0 0.0
vn 0.0 1.0 0.0
vn 0.0 1.0 0.0
vn 0.0 0.0 -1.0
vn 0.0 0.0 -1.0
vn 0.0 0.0 -1.0
vn 0.0 0.0 -1.0
vn -0.707107 0.0 0.707107
vn -0.707107 0.0 0.707107
vn -0.707107 0.0 0.707107
vn -0.707107 0.0 0.707107
vn 0.707107 0.0 0.707107
vn 0.707107 0.0 0.707107
vn 0.707107 0.0 0.707107
vn 0.707107 0.0 0.707107
vn -0.707106 0.707107 0.0
vn -0.707106 0.707107 0.0
vn -0.707106 0.707107 0.0
vn -0.707106 0.707107 0.0
vn 0.0 0.707107 0.707107
vn 0.0 0.707107 0.707107
vn 0.0 0.707107 0.707107
vn 0.0 0.707107 0.707107
vn 0.707107 0.707107 0.0
vn 0.707107 0.707107 0.0
vn 0.707107 0.707107 0.0
vn 0.707107 0.707107 0.0
vn -0.707107 0.0 -0.707107
vn -0.707107 0.0 -0.707107
vn -0.707107 0.0 -0.707107
vn -0.707107 0.0 -0.707107
vn 0.0 0.707107 -0.707107
vn 0.0 0.707107 -0.707107
vn 0.0 0.707107 -0.707107
vn 0.0 0.707107 -0.707107
vn 0.707107 0.0 -0.707107
vn 0.707107 0.0 -0.707107
vn 0.707107 0.0 -0.707107
vn 0.707107 0.0 -0.707107
vn -0.577351 0.57735 0.57735
vn -0.577351 0.57735 0.57735
vn -0.577351 0.57735 0.57735
vn 0.57735 0.57735 0.57735
vn 0.57735 0.57735 0.57735
vn 0.57735 0.57735 0.57735
vn -0.57735 0.57735 -0.57735
vn -0.57735 0.57735 -0.57735
vn -0.57735 0.57735 -0.57735
vn 0.57735 0.577351 -0.57735
vn 0.57735 0.577351 -0.57735
vn 0.57735 0.577351 -0.57735

# Texture vertices (vt):
vt 0.321323 0.299277
vt 0.321323 0.528034
vt 0.092567 0.528034
vt 0.092567 0.299277
vt 0.594065 0.5265
vt 0.361483 0.5265
vt 0.361483 0.293918
vt 0.594065 0.293918
vt 0.596602 0.055261
vt 0.596602 0.285117
vt 0.366746 0.285117
vt 0.366746 0.055261
vt 0.875421 0.301553
vt 0.875421 0.52989
vt 0.647084 0.52989
vt 0.647084 0.301553
vt 0.585795 0.537981
vt 0.585795 0.76465
vt 0.359126 0.76465
vt 0.359126 0.537981
vt 0.041252 0.269417
vt 0.08821 0.269417
vt 0.08821 0.542271
vt 0.041252 0.542271
vt 0.647667 0.586546
vt 0.703186 0.586546
vt 0.703186 0.859401
vt 0.647667 0.859401
vt 0.040312 0.249358
vt 0.109214 0.249358
vt 0.109214 0.532093
vt 0.040312 0.532093
vt 0.329845 0.884057
vt 0.329845 0.827572
vt 0.6027 0.827572
vt 0.6027 0.884057
vt 0.671014 0.566487
vt 0.737374 0.566487
vt 0.737374 0.849222
vt 0.671014 0.849222
vt 0.031169 0.257027
vt 0.074222 0.257027
vt 0.074222 0.54882
vt 0.031169 0.54882
vt 0.326189 0.882259
vt 0.326189 0.809886
vt 0.608924 0.809886
vt 0.608924 0.882259
vt 0.654777 0.574157
vt 0.710767 0.574157
vt 0.710767 0.865949
vt 0.654777 0.865949
vt 0.065831 0.749122
vt 0.041759 0.72505
vt 0.065831 0.72505
vt 0.372807 0.715003
vt 0.328638 0.75917
vt 0.328638 0.715003
vt 0.069116 0.746757
vt 0.030291 0.707931
vt 0.069116 0.707931
vt 0.369855 0.714872
vt 0.34491 0.739816
vt 0.34491 0.714872

# Surface (f):
f 1/1/1 2/2/2 3/3/3
f 1/1/1 3/3/3 4/4/4
f 5/5/5 6/6/6 7/7/7
f 5/5/5 7/7/7 8/8/8
f 9/9/9 10/10/10 11/11/11
f 9/9/9 11/11/11 12/12/12
f 13/13/13 14/14/14 15/15/15
f 13/13/13 15/15/15 16/16/16
f 17/17/17 18/18/18 19/19/19
f 17/17/17 19/19/19 20/20/20
f 21/21/21 22/22/22 23/23/23
f 21/21/21 23/23/23 24/24/24
f 25/25/25 26/26/26 27/27/27
f 25/25/25 27/27/27 28/28/28
f 29/29/29 30/30/30 31/31/31
f 29/29/29 31/31/31 32/32/32
f 33/33/33 34/34/34 35/35/35
f 33/33/33 35/35/35 36/36/36
f 37/37/37 38/38/38 39/39/39
f 37/37/37 39/39/39 40/40/40
f 41/41/41 42/42/42 43/43/43
f 41/41/41 43/43/43 44/44/44
f 45/45/45 46/46/46 47/47/47
f 45/45/45 47/47/47 48/48/48
f 49/49/49 50/50/50 51/51/51
f 49/49/49 51/51/51 52/52/52
f 53/53/53 54/54/54 55/55/55
f 56/56/56 57/57/57 58/58/58
f 59/59/59 60/60/60 61/61/61
f 62/62/62 63/63/63 64/64/64

# Line (l):
l 59 63
l 62 64
l 56 58
l 21 54
l 56 57
l 54 60
l 57 58
l 60 44
l 57 58
l 22 55
l 56 62
l 53 57
l 59 43
l 26 56
l 63 64
l 56 57
l 62 51
l 26 25
l 63 52
l 57 64
l 53 61
l 60 61
l 53 55
l 53 61
l 53 54
l 62 51
l 25 58
l 59 43
l 54 55
l 22 55
l 59 60
l 54 60
l 59 61
l 61 64
l 21 54
l 60 61
l 21 44
l 53 57
l 60 44
l 59 63
l 44 43
l 53 55
l 59 60
l 61 64
l 26 56
l 21 22
l 26 51
l 57 64
l 43 52
l 55 58
l 22 25
l 63 64
l 62 64
l 62 63
l 55 58
l 59 61
l 53 54
l 62 63
l 51 52
l 54 55
l 56 58
l 25 58
l 63 52
l 56 62

